<svg xmlns="http://www.w3.org/2000/svg" viewBox="0 0 128 128">
  <path fill="#F34F29" d="M124.1 58.3L69.7 3.9c-5.2-5.2-13.7-5.2-18.9 0L39.5 15.2l14.3 14.3c3.3-1.1 7.1-.4 9.8 2.3 2.7 2.7 3.5 6.6 2.2 10l13.8 13.8c3.4-1.2 7.3-.5 10 2.2 3.8 3.8 3.8 10 0 13.8-3.8 3.8-10 3.8-13.8 0-2.8-2.8-3.5-6.9-2.1-10.4L60.8 47.4v34.8c.9.4 1.8 1 2.6 1.8 3.8 3.8 3.8 10 0 13.8s-10 3.8-13.8 0-3.8-10 0-13.8c.9-.9 1.9-1.5 3-1.9V47c-1.1-.4-2.1-1-3-1.9-2.9-2.9-3.6-7.1-2-10.8L33.5 20.2 3.9 49.8c-5.2 5.2-5.2 13.7 0 18.9l54.4 54.4c5.2 5.2 13.7 5.2 18.9 0l46.9-46.9c5.2-5.2 5.2-13.7 0-18.9z"/>
</svg>