<svg xmlns="http://www.w3.org/2000/svg" viewBox="0 0 128 128">
  <path fill="#E44D26" d="M19 3l8.2 92.1L64 125l36.8-29.9L109 3H19z"/>
  <path fill="#F16529" d="M64 117.2l29.7-24.1L100.7 10H64v107.2z"/>
  <path fill="#EBEBEB" d="M64 46.1H48.6l-1-11.6H64V23.2H35.2l.3 3.1 2.8 31.1H64V46.1z"/>
  <path fill="#EBEBEB" d="M64 75.4l-.1.1-12.5-3.4-.8-9.4H39.3l1.6 18.1L64 87.2V75.4z"/>
  <path fill="#fff" d="M63.9 46.1v11.3h13.8l-1.3 14.6-12.5 3.4v11.8l23.1-6.4.2-1.9 2.6-29.7.3-3.1H63.9z"/>
  <path fill="#fff" d="M63.9 23.2v11.3h27.3l.2-2.5.5-5.7.3-3.1H63.9z"/>
</svg>