<svg xmlns="http://www.w3.org/2000/svg" viewBox="0 0 128 128">
  <path fill="#CC6699" d="M110.4 75.8c-4.7-.9-7.9-1.3-9.3-1.3-.1 0-.2 0-.3.1 1.9-6.7 1.4-12.7-1.5-17.7-6.1-10.6-19.8-11.1-33.4-5.3-4.1-4-8.3-7.5-11.4-10.5-5.8-5.4-11-10.2-9.7-15.4.9-3.7 5.4-6.2 8.8-6.8 4.7-.9 8.4.8 9.4 3.7.9 2.7-.8 5.7-5.6 8.4-1.8 1-2.2 3.3-1 4.9 1.1 1.5 3.3 1.9 5 .9 7.7-4.4 11.1-10.3 9.3-16.4-2-6.9-9.8-10.8-19.5-9-7.8 1.4-14.4 6.7-16.3 14.3-2.1 8.4 4.3 14.7 10.4 20.5 2.4 2.3 5.2 4.8 8 7.4-3.9 2.3-7.6 5-10.8 7.9-12.4 11.3-17.7 24.5-13.6 33.8 2.7 6.2 9.2 9.9 17.4 9.9h.2c10.6-.1 20.7-5.7 28.1-15.3 2.5-3.2 4.6-6.8 6.4-10.6 2.7-.2 7.4.2 12.7 1.3 9.6 2 10.8 5 10.8 6.1 0 2.1-2.8 4.5-7.1 6.2-4.3 1.7-10.3 2.4-16.2 1.5-2-.3-3.8 1.1-4.1 3.1-.3 2 1.1 3.8 3.1 4.1 7 .9 14.3.1 20-2.2 7.1-2.8 11.7-7.5 11.7-12.7 0-7.3-8.6-11.3-16.7-12.8z"/>
</svg>